# xmcd
#
# Track frame offsets: 
#        150
#        12283
#        26296
#        38742
#        46618
#        62155
#        84085
#        97852
#        113453
#        117042
#        122884
#        134410
#        150953
#        164150
#        176789
#        182090
#        186715
#        206052
#        219502
#        237722
#        248585
#        269476
#
# Disc length: 3859 seconds
#
# Revision: 0
# Processed by: cddbd v1.5.2PL0 Copyright (c) Steve Scherf et al.
# Submitted via: ExactAudioCopy v0.99pb4
#
DISCID=2b0f1116
DTITLE=Katastroof - Van 't Schap - Katastrofalia 2
DYEAR=2016
DGENRE=Folklore
TTITLE0=Schaft Die Godsdiensten Af!
TTITLE1=Wijventoeker
TTITLE2=Ik Krijg Slagen Van Mijn Vrouw
TTITLE3=De Eurotechnokraten
TTITLE4=Mohammed Moestafa
TTITLE5=Pa
TTITLE6=Wereldvrede
TTITLE7=De Katanationale
TTITLE8=Zeven Jaar
TTITLE9=Bier
TTITLE10=Wij Drinken Duvel
TTITLE11=Zuipersmedley
TTITLE12=Zuipte Voor 't Eerst
TTITLE13=Kaffee Den Engel
TTITLE14=Twalette-Muzetteke
TTITLE15=Eurostroof
TTITLE16=Hoereloperstango (Met Kommil Foo)
TTITLE17=Zwarte Liza (2016)
TTITLE18=Met De Wijven Niks As Last (2016)
TTITLE19=Helemaal Onderin D'rin
TTITLE20=Tristige Plant (Met Tourist LeMC)
TTITLE21=Wij Wille Tette Zien (Remix)
EXTD=
EXTT0=
EXTT1=
EXTT2=
EXTT3=
EXTT4=
EXTT5=
EXTT6=
EXTT7=
EXTT8=
EXTT9=
EXTT10=
EXTT11=
EXTT12=
EXTT13=
EXTT14=
EXTT15=
EXTT16=
EXTT17=
EXTT18=
EXTT19=
EXTT20=
EXTT21=
PLAYORDER=
